<?xml version="1.0" encoding="UTF-8"?>
<svg xmlns="http://www.w3.org/2000/svg" xmlns:xlink="http://www.w3.org/1999/xlink" width="6px" height="5px" viewBox="0 0 6 5" version="1.1">
<g id="surface1">
<path style=" stroke:none;fill-rule:nonzero;fill:rgb(0%,0%,0%);fill-opacity:1;" d="M 3.003906 2.664062 L 1.183594 3.992188 C 1.058594 4.085938 0.851562 4.085938 0.730469 3.992188 L 0.425781 3.773438 C 0.300781 3.679688 0.300781 3.53125 0.425781 3.441406 L 1.71875 2.5 L 0.425781 1.558594 C 0.300781 1.46875 0.300781 1.320312 0.425781 1.226562 L 0.726562 1.007812 C 0.851562 0.914062 1.058594 0.914062 1.179688 1.007812 L 3.003906 2.335938 C 3.128906 2.425781 3.128906 2.574219 3.003906 2.664062 Z M 5.574219 2.335938 L 3.753906 1.007812 C 3.628906 0.914062 3.425781 0.914062 3.300781 1.007812 L 2.996094 1.226562 C 2.871094 1.320312 2.871094 1.46875 2.996094 1.558594 L 4.289062 2.5 L 2.996094 3.441406 C 2.871094 3.53125 2.871094 3.679688 2.996094 3.773438 L 3.300781 3.992188 C 3.425781 4.085938 3.628906 4.085938 3.753906 3.992188 L 5.574219 2.664062 C 5.703125 2.574219 5.703125 2.425781 5.574219 2.335938 Z M 5.574219 2.335938 "/>
</g>
</svg>
